<!-- Generator: Adobe Illustrator 23.0.1, SVG Export Plug-In . SVG Version: 6.00 Build 0)  -->
<svg width="35" height="30" enable-background="new 0 0 240.1 240.1" version="1.1" viewBox="0 0 35 30" xml:space="preserve" xmlns="http://www.w3.org/2000/svg">
<g id="Artboard">
	
		
	
	<path d="m6.6723 13.409c7.0104-3.0445 11.677-5.0675 14.021-6.049 6.6699-2.7841 8.072-3.2649 8.9733-3.2849 0.2003 0 0.64095 0.040063 0.9414 0.28042 0.24036 0.2003 0.30045 0.46068 0.34051 0.66098s0.08012 0.62092 0.04006 0.9414c-0.36054 3.8057-1.9229 13.039-2.724 17.286-0.3405 1.8027-1.0015 2.4036-1.6424 2.4637-1.4021 0.12018-2.4637-0.92137-3.8057-1.8027-2.1232-1.3821-3.3049-2.2433-5.368-3.6054-2.3835-1.5623-0.84125-2.4236 0.52077-3.8257 0.36054-0.36054 6.5097-5.9689 6.6299-6.4696 0.02003-0.060084 0.02003-0.30045-0.12018-0.42063-0.14021-0.12018-0.34051-0.080116-0.50074-0.040063-0.22033 0.040063-3.5853 2.2834-10.135 6.71-0.96143 0.66098-1.8227 0.98146-2.6039 0.96143-0.86128-0.02003-2.5037-0.48072-3.7456-0.88131-1.5022-0.48072-2.704-0.7411-2.6039-1.5824 0.060095-0.44066 0.66098-0.88131 1.7826-1.342z" clip-rule="evenodd" fill="#fff" fill-rule="evenodd" stroke-width=".2003"/>
</g>
</svg>
