<svg width="664" height="584" xmlns="http://www.w3.org/2000/svg" xmlns:xlink="http://www.w3.org/1999/xlink">
 <!-- Generator: Sketch 3.8.3 (29802) - http://www.bohemiancoding.com/sketch -->
 <title>social-icons</title>
 <desc>Created with Sketch.</desc>
 <defs>
  <circle r="22" cy="22" cx="22" id="path-1"/>
  <mask height="44" width="44" y="0" x="0" maskUnits="objectBoundingBox" maskContentUnits="userSpaceOnUse" id="mask-2">
   <use id="svg_1" xlink:href="#path-1"/>
  </mask>
  <circle r="22" cy="22" cx="22" id="path-3"/>
  <mask height="44" width="44" y="0" x="0" maskUnits="objectBoundingBox" maskContentUnits="userSpaceOnUse" id="mask-4">
   <use id="svg_2" xlink:href="#path-3"/>
  </mask>
  <circle r="22" cy="22" cx="22" id="path-5"/>
  <mask height="44" width="44" y="0" x="0" maskUnits="objectBoundingBox" maskContentUnits="userSpaceOnUse" id="mask-6">
   <use id="svg_3" xlink:href="#path-5"/>
  </mask>
  <circle r="22" cy="22" cx="22" id="path-7"/>
  <mask height="44" width="44" y="0" x="0" maskUnits="objectBoundingBox" maskContentUnits="userSpaceOnUse" id="mask-8">
   <use id="svg_4" xlink:href="#path-7"/>
  </mask>
  <circle r="22" cy="22" cx="22" id="path-9"/>
  <mask height="44" width="44" y="0" x="0" maskUnits="objectBoundingBox" maskContentUnits="userSpaceOnUse" id="mask-10">
   <use id="svg_5" xlink:href="#path-9"/>
  </mask>
  <circle r="22" cy="22" cx="22" id="path-11"/>
  <mask height="44" width="44" y="0" x="0" maskUnits="objectBoundingBox" maskContentUnits="userSpaceOnUse" id="mask-12">
   <use id="svg_6" xlink:href="#path-11"/>
  </mask>
  <circle r="22" cy="22" cx="22" id="path-13"/>
  <mask height="44" width="44" y="0" x="0" maskUnits="objectBoundingBox" maskContentUnits="userSpaceOnUse" id="mask-14">
   <use id="svg_7" xlink:href="#path-13"/>
  </mask>
  <circle r="22" cy="22" cx="22" id="path-15"/>
  <mask height="44" width="44" y="0" x="0" maskUnits="objectBoundingBox" maskContentUnits="userSpaceOnUse" id="mask-16">
   <use id="svg_8" xlink:href="#path-15"/>
  </mask>
  <circle r="22" cy="22" cx="22" id="path-17"/>
  <mask height="44" width="44" y="0" x="0" maskUnits="objectBoundingBox" maskContentUnits="userSpaceOnUse" id="mask-18">
   <use id="svg_9" xlink:href="#path-17"/>
  </mask>
  <circle r="22" cy="22" cx="22" id="path-19"/>
  <mask height="44" width="44" y="0" x="0" maskUnits="objectBoundingBox" maskContentUnits="userSpaceOnUse" id="mask-20">
   <use id="svg_10" xlink:href="#path-19"/>
  </mask>
  <circle r="22" cy="22" cx="22" id="path-21"/>
  <mask height="44" width="44" y="0" x="0" maskUnits="objectBoundingBox" maskContentUnits="userSpaceOnUse" id="mask-22">
   <use id="svg_11" xlink:href="#path-21"/>
  </mask>
  <circle r="22" cy="22" cx="22" id="path-23"/>
  <mask height="44" width="44" y="0" x="0" maskUnits="objectBoundingBox" maskContentUnits="userSpaceOnUse" id="mask-24">
   <use id="svg_12" xlink:href="#path-23"/>
  </mask>
  <circle r="22" cy="22" cx="22" id="path-25"/>
  <mask height="44" width="44" y="0" x="0" maskUnits="objectBoundingBox" maskContentUnits="userSpaceOnUse" id="mask-26">
   <use id="svg_13" xlink:href="#path-25"/>
  </mask>
  <circle r="22" cy="22" cx="22" id="path-27"/>
  <mask height="44" width="44" y="0" x="0" maskUnits="objectBoundingBox" maskContentUnits="userSpaceOnUse" id="mask-28">
   <use id="svg_14" xlink:href="#path-27"/>
  </mask>
  <circle r="22" cy="22" cx="22" id="path-29"/>
  <mask height="44" width="44" y="0" x="0" maskUnits="objectBoundingBox" maskContentUnits="userSpaceOnUse" id="mask-30">
   <use id="svg_15" xlink:href="#path-29"/>
  </mask>
  <circle r="22" cy="22" cx="22" id="path-31"/>
  <mask height="44" width="44" y="0" x="0" maskUnits="objectBoundingBox" maskContentUnits="userSpaceOnUse" id="mask-32">
   <use id="svg_16" xlink:href="#path-31"/>
  </mask>
  <circle r="22" cy="22" cx="22" id="path-33"/>
  <mask height="44" width="44" y="0" x="0" maskUnits="objectBoundingBox" maskContentUnits="userSpaceOnUse" id="mask-34">
   <use id="svg_17" xlink:href="#path-33"/>
  </mask>
  <circle r="22" cy="22" cx="22" id="path-35"/>
  <mask height="44" width="44" y="0" x="0" maskUnits="objectBoundingBox" maskContentUnits="userSpaceOnUse" id="mask-36">
   <use id="svg_18" xlink:href="#path-35"/>
  </mask>
  <circle r="22" cy="22" cx="22" id="path-37"/>
  <mask height="44" width="44" y="0" x="0" maskUnits="objectBoundingBox" maskContentUnits="userSpaceOnUse" id="mask-38">
   <use id="svg_19" xlink:href="#path-37"/>
  </mask>
  <circle r="22" cy="22" cx="22" id="path-39"/>
  <mask height="44" width="44" y="0" x="0" maskUnits="objectBoundingBox" maskContentUnits="userSpaceOnUse" id="mask-40">
   <use id="svg_20" xlink:href="#path-39"/>
  </mask>
  <circle r="22" cy="22" cx="22" id="path-41"/>
  <mask height="44" width="44" y="0" x="0" maskUnits="objectBoundingBox" maskContentUnits="userSpaceOnUse" id="mask-42">
   <use id="svg_21" xlink:href="#path-41"/>
  </mask>
  <circle r="22" cy="22" cx="22" id="path-43"/>
  <mask height="44" width="44" y="0" x="0" maskUnits="objectBoundingBox" maskContentUnits="userSpaceOnUse" id="mask-44">
   <use id="svg_22" xlink:href="#path-43"/>
  </mask>
  <circle r="22" cy="22" cx="22" id="path-45"/>
  <mask height="44" width="44" y="0" x="0" maskUnits="objectBoundingBox" maskContentUnits="userSpaceOnUse" id="mask-46">
   <use id="svg_23" xlink:href="#path-45"/>
  </mask>
  <circle r="22" cy="22" cx="22" id="path-47"/>
  <mask height="44" width="44" y="0" x="0" maskUnits="objectBoundingBox" maskContentUnits="userSpaceOnUse" id="mask-48">
   <use id="svg_24" xlink:href="#path-47"/>
  </mask>
  <circle r="22" cy="22" cx="22" id="path-49"/>
  <mask height="44" width="44" y="0" x="0" maskUnits="objectBoundingBox" maskContentUnits="userSpaceOnUse" id="mask-50">
   <use id="svg_25" xlink:href="#path-49"/>
  </mask>
  <circle r="22" cy="22" cx="22" id="path-51"/>
  <mask height="44" width="44" y="0" x="0" maskUnits="objectBoundingBox" maskContentUnits="userSpaceOnUse" id="mask-52">
   <use id="svg_26" xlink:href="#path-51"/>
  </mask>
  <circle r="22" cy="22" cx="22" id="path-53"/>
  <mask height="44" width="44" y="0" x="0" maskUnits="objectBoundingBox" maskContentUnits="userSpaceOnUse" id="mask-54">
   <use id="svg_27" xlink:href="#path-53"/>
  </mask>
  <circle r="22" cy="22" cx="22" id="path-55"/>
  <mask height="44" width="44" y="0" x="0" maskUnits="objectBoundingBox" maskContentUnits="userSpaceOnUse" id="mask-56">
   <use id="svg_28" xlink:href="#path-55"/>
  </mask>
  <circle r="22" cy="22" cx="22" id="path-57"/>
  <mask height="44" width="44" y="0" x="0" maskUnits="objectBoundingBox" maskContentUnits="userSpaceOnUse" id="mask-58">
   <use id="svg_29" xlink:href="#path-57"/>
  </mask>
  <circle r="22" cy="22" cx="22" id="path-59"/>
  <mask height="44" width="44" y="0" x="0" maskUnits="objectBoundingBox" maskContentUnits="userSpaceOnUse" id="mask-60">
   <use id="svg_30" xlink:href="#path-59"/>
  </mask>
  <circle r="22" cy="22" cx="22" id="path-61"/>
  <mask height="44" width="44" y="0" x="0" maskUnits="objectBoundingBox" maskContentUnits="userSpaceOnUse" id="mask-62">
   <use id="svg_31" xlink:href="#path-61"/>
  </mask>
  <circle r="22" cy="22" cx="22" id="path-63"/>
  <mask height="44" width="44" y="0" x="0" maskUnits="objectBoundingBox" maskContentUnits="userSpaceOnUse" id="mask-64">
   <use id="svg_32" xlink:href="#path-63"/>
  </mask>
  <circle r="22" cy="22" cx="22" id="path-65"/>
  <mask height="44" width="44" y="0" x="0" maskUnits="objectBoundingBox" maskContentUnits="userSpaceOnUse" id="mask-66">
   <use id="svg_33" xlink:href="#path-65"/>
  </mask>
  <circle r="22" cy="22" cx="22" id="path-67"/>
  <mask height="44" width="44" y="0" x="0" maskUnits="objectBoundingBox" maskContentUnits="userSpaceOnUse" id="mask-68">
   <use id="svg_34" xlink:href="#path-67"/>
  </mask>
  <circle r="22" cy="22" cx="22" id="path-69"/>
  <mask height="44" width="44" y="0" x="0" maskUnits="objectBoundingBox" maskContentUnits="userSpaceOnUse" id="mask-70">
   <use id="svg_35" xlink:href="#path-69"/>
  </mask>
  <circle r="22" cy="22" cx="22" id="path-71"/>
  <mask height="44" width="44" y="0" x="0" maskUnits="objectBoundingBox" maskContentUnits="userSpaceOnUse" id="mask-72">
   <use id="svg_36" xlink:href="#path-71"/>
  </mask>
  <circle r="22" cy="22" cx="22" id="path-73"/>
  <mask height="44" width="44" y="0" x="0" maskUnits="objectBoundingBox" maskContentUnits="userSpaceOnUse" id="mask-74">
   <use id="svg_37" xlink:href="#path-73"/>
  </mask>
  <circle r="22" cy="22" cx="22" id="path-75"/>
  <mask height="44" width="44" y="0" x="0" maskUnits="objectBoundingBox" maskContentUnits="userSpaceOnUse" id="mask-76">
   <use id="svg_38" xlink:href="#path-75"/>
  </mask>
  <circle r="22" cy="22" cx="22" id="path-77"/>
  <mask height="44" width="44" y="0" x="0" maskUnits="objectBoundingBox" maskContentUnits="userSpaceOnUse" id="mask-78">
   <use id="svg_39" xlink:href="#path-77"/>
  </mask>
  <circle r="22" cy="22" cx="22" id="path-79"/>
  <mask height="44" width="44" y="0" x="0" maskUnits="objectBoundingBox" maskContentUnits="userSpaceOnUse" id="mask-80">
   <use id="svg_40" xlink:href="#path-79"/>
  </mask>
  <circle r="22" cy="22" cx="22" id="path-81"/>
  <mask height="44" width="44" y="0" x="0" maskUnits="objectBoundingBox" maskContentUnits="userSpaceOnUse" id="mask-82">
   <use id="svg_41" xlink:href="#path-81"/>
  </mask>
  <circle r="22" cy="22" cx="22" id="path-83"/>
  <mask height="44" width="44" y="0" x="0" maskUnits="objectBoundingBox" maskContentUnits="userSpaceOnUse" id="mask-84">
   <use id="svg_42" xlink:href="#path-83"/>
  </mask>
  <circle r="22" cy="22" cx="22" id="path-85"/>
  <mask height="44" width="44" y="0" x="0" maskUnits="objectBoundingBox" maskContentUnits="userSpaceOnUse" id="mask-86">
   <use id="svg_43" xlink:href="#path-85"/>
  </mask>
  <circle r="22" cy="22" cx="22" id="path-87"/>
  <mask height="44" width="44" y="0" x="0" maskUnits="objectBoundingBox" maskContentUnits="userSpaceOnUse" id="mask-88">
   <use id="svg_44" xlink:href="#path-87"/>
  </mask>
  <circle r="22" cy="22" cx="22" id="path-89"/>
  <mask height="44" width="44" y="0" x="0" maskUnits="objectBoundingBox" maskContentUnits="userSpaceOnUse" id="mask-90">
   <use id="svg_45" xlink:href="#path-89"/>
  </mask>
  <circle r="22" cy="22" cx="22" id="path-91"/>
  <mask height="44" width="44" y="0" x="0" maskUnits="objectBoundingBox" maskContentUnits="userSpaceOnUse" id="mask-92">
   <use id="svg_46" xlink:href="#path-91"/>
  </mask>
  <circle r="22" cy="22" cx="22" id="path-93"/>
  <mask height="44" width="44" y="0" x="0" maskUnits="objectBoundingBox" maskContentUnits="userSpaceOnUse" id="mask-94">
   <use id="svg_47" xlink:href="#path-93"/>
  </mask>
  <circle r="22" cy="22" cx="22" id="path-95"/>
  <mask height="44" width="44" y="0" x="0" maskUnits="objectBoundingBox" maskContentUnits="userSpaceOnUse" id="mask-96">
   <use id="svg_48" xlink:href="#path-95"/>
  </mask>
  <circle r="22" cy="22" cx="22" id="path-97"/>
  <mask height="44" width="44" y="0" x="0" maskUnits="objectBoundingBox" maskContentUnits="userSpaceOnUse" id="mask-98">
   <use id="svg_49" xlink:href="#path-97"/>
  </mask>
  <circle r="22" cy="22" cx="22" id="path-99"/>
  <mask height="44" width="44" y="0" x="0" maskUnits="objectBoundingBox" maskContentUnits="userSpaceOnUse" id="mask-100">
   <use id="svg_50" xlink:href="#path-99"/>
  </mask>
  <circle r="22" cy="22" cx="22" id="path-101"/>
  <mask height="44" width="44" y="0" x="0" maskUnits="objectBoundingBox" maskContentUnits="userSpaceOnUse" id="mask-102">
   <use id="svg_51" xlink:href="#path-101"/>
  </mask>
  <circle r="22" cy="22" cx="22" id="path-103"/>
  <mask height="44" width="44" y="0" x="0" maskUnits="objectBoundingBox" maskContentUnits="userSpaceOnUse" id="mask-104">
   <use id="svg_52" xlink:href="#path-103"/>
  </mask>
  <circle r="22" cy="22" cx="22" id="path-105"/>
  <mask height="44" width="44" y="0" x="0" maskUnits="objectBoundingBox" maskContentUnits="userSpaceOnUse" id="mask-106">
   <use id="svg_53" xlink:href="#path-105"/>
  </mask>
  <circle r="22" cy="22" cx="22" id="path-107"/>
  <mask height="44" width="44" y="0" x="0" maskUnits="objectBoundingBox" maskContentUnits="userSpaceOnUse" id="mask-108">
   <use id="svg_54" xlink:href="#path-107"/>
  </mask>
  <circle r="22" cy="22" cx="22" id="path-109"/>
  <mask height="44" width="44" y="0" x="0" maskUnits="objectBoundingBox" maskContentUnits="userSpaceOnUse" id="mask-110">
   <use id="svg_55" xlink:href="#path-109"/>
  </mask>
  <circle r="22" cy="22" cx="22" id="path-111"/>
  <mask height="44" width="44" y="0" x="0" maskUnits="objectBoundingBox" maskContentUnits="userSpaceOnUse" id="mask-112">
   <use id="svg_56" xlink:href="#path-111"/>
  </mask>
  <circle r="22" cy="22" cx="22" id="path-113"/>
  <mask height="44" width="44" y="0" x="0" maskUnits="objectBoundingBox" maskContentUnits="userSpaceOnUse" id="mask-114">
   <use id="svg_57" xlink:href="#path-113"/>
  </mask>
  <circle r="22" cy="22" cx="22" id="path-115"/>
  <mask height="44" width="44" y="0" x="0" maskUnits="objectBoundingBox" maskContentUnits="userSpaceOnUse" id="mask-116">
   <use id="svg_58" xlink:href="#path-115"/>
  </mask>
  <circle r="22" cy="22" cx="22" id="path-117"/>
  <mask height="44" width="44" y="0" x="0" maskUnits="objectBoundingBox" maskContentUnits="userSpaceOnUse" id="mask-118">
   <use id="svg_59" xlink:href="#path-117"/>
  </mask>
  <circle r="22" cy="22" cx="22" id="path-119"/>
  <mask height="44" width="44" y="0" x="0" maskUnits="objectBoundingBox" maskContentUnits="userSpaceOnUse" id="mask-120">
   <use id="svg_60" xlink:href="#path-119"/>
  </mask>
  <circle r="22" cy="22" cx="22" id="path-121"/>
  <mask height="44" width="44" y="0" x="0" maskUnits="objectBoundingBox" maskContentUnits="userSpaceOnUse" id="mask-122">
   <use id="svg_61" xlink:href="#path-121"/>
  </mask>
  <circle r="22" cy="22" cx="22" id="path-123"/>
  <mask height="44" width="44" y="0" x="0" maskUnits="objectBoundingBox" maskContentUnits="userSpaceOnUse" id="mask-124">
   <use id="svg_62" xlink:href="#path-123"/>
  </mask>
  <circle r="22" cy="22" cx="22" id="path-125"/>
  <mask height="44" width="44" y="0" x="0" maskUnits="objectBoundingBox" maskContentUnits="userSpaceOnUse" id="mask-126">
   <use id="svg_63" xlink:href="#path-125"/>
  </mask>
  <circle r="22" cy="22" cx="22" id="path-127"/>
  <mask height="44" width="44" y="0" x="0" maskUnits="objectBoundingBox" maskContentUnits="userSpaceOnUse" id="mask-128">
   <use id="svg_64" xlink:href="#path-127"/>
  </mask>
  <circle r="22" cy="22" cx="22" id="path-129"/>
  <mask height="44" width="44" y="0" x="0" maskUnits="objectBoundingBox" maskContentUnits="userSpaceOnUse" id="mask-130">
   <use id="svg_65" xlink:href="#path-129"/>
  </mask>
  <circle r="22" cy="22" cx="22" id="path-131"/>
  <mask height="44" width="44" y="0" x="0" maskUnits="objectBoundingBox" maskContentUnits="userSpaceOnUse" id="mask-132">
   <use id="svg_66" xlink:href="#path-131"/>
  </mask>
  <circle r="22" cy="22" cx="22" id="path-133"/>
  <mask height="44" width="44" y="0" x="0" maskUnits="objectBoundingBox" maskContentUnits="userSpaceOnUse" id="mask-134">
   <use id="svg_67" xlink:href="#path-133"/>
  </mask>
  <circle r="22" cy="22" cx="22" id="path-135"/>
  <mask height="44" width="44" y="0" x="0" maskUnits="objectBoundingBox" maskContentUnits="userSpaceOnUse" id="mask-136">
   <use id="svg_68" xlink:href="#path-135"/>
  </mask>
  <circle r="22" cy="22" cx="22" id="path-137"/>
  <mask height="44" width="44" y="0" x="0" maskUnits="objectBoundingBox" maskContentUnits="userSpaceOnUse" id="mask-138">
   <use id="svg_69" xlink:href="#path-137"/>
  </mask>
  <circle r="22" cy="22" cx="22" id="path-139"/>
  <mask height="44" width="44" y="0" x="0" maskUnits="objectBoundingBox" maskContentUnits="userSpaceOnUse" id="mask-140">
   <use id="svg_70" xlink:href="#path-139"/>
  </mask>
  <circle r="22" cy="22" cx="22" id="path-141"/>
  <mask height="44" width="44" y="0" x="0" maskUnits="objectBoundingBox" maskContentUnits="userSpaceOnUse" id="mask-142">
   <use id="svg_71" xlink:href="#path-141"/>
  </mask>
  <circle r="22" cy="22" cx="22" id="path-143"/>
  <mask height="44" width="44" y="0" x="0" maskUnits="objectBoundingBox" maskContentUnits="userSpaceOnUse" id="mask-144">
   <use id="svg_72" xlink:href="#path-143"/>
  </mask>
  <circle r="22" cy="22" cx="22" id="path-145"/>
  <mask height="44" width="44" y="0" x="0" maskUnits="objectBoundingBox" maskContentUnits="userSpaceOnUse" id="mask-146">
   <use id="svg_73" xlink:href="#path-145"/>
  </mask>
  <circle r="22" cy="22" cx="22" id="path-147"/>
  <mask height="44" width="44" y="0" x="0" maskUnits="objectBoundingBox" maskContentUnits="userSpaceOnUse" id="mask-148">
   <use id="svg_74" xlink:href="#path-147"/>
  </mask>
  <circle r="22" cy="22" cx="22" id="path-149"/>
  <mask height="44" width="44" y="0" x="0" maskUnits="objectBoundingBox" maskContentUnits="userSpaceOnUse" id="mask-150">
   <use id="svg_75" xlink:href="#path-149"/>
  </mask>
  <circle r="22" cy="22" cx="22" id="path-151"/>
  <mask height="44" width="44" y="0" x="0" maskUnits="objectBoundingBox" maskContentUnits="userSpaceOnUse" id="mask-152">
   <use id="svg_76" xlink:href="#path-151"/>
  </mask>
  <circle r="22" cy="22" cx="22" id="path-153"/>
  <mask height="44" width="44" y="0" x="0" maskUnits="objectBoundingBox" maskContentUnits="userSpaceOnUse" id="mask-154">
   <use id="svg_77" xlink:href="#path-153"/>
  </mask>
  <circle r="22" cy="22" cx="22" id="path-155"/>
  <mask height="44" width="44" y="0" x="0" maskUnits="objectBoundingBox" maskContentUnits="userSpaceOnUse" id="mask-156">
   <use id="svg_78" xlink:href="#path-155"/>
  </mask>
  <circle r="22" cy="22" cx="22" id="path-157"/>
  <mask height="44" width="44" y="0" x="0" maskUnits="objectBoundingBox" maskContentUnits="userSpaceOnUse" id="mask-158">
   <use id="svg_79" xlink:href="#path-157"/>
  </mask>
  <circle r="22" cy="22" cx="22" id="path-159"/>
  <mask height="44" width="44" y="0" x="0" maskUnits="objectBoundingBox" maskContentUnits="userSpaceOnUse" id="mask-160">
   <use id="svg_80" xlink:href="#path-159"/>
  </mask>
 </defs>
 <g>
  <title>background</title>
  <rect fill="none" id="canvas_background" height="586" width="666" y="-1" x="-1"/>
 </g>
 <g>
  <title>Layer 1</title>
  <g stroke="null" id="svg_109">
   <g stroke="null" transform="matrix(1.0415038316826957,0,0,1.0415038316826957,-1595.349204043671,-1412.4130507611708) " id="svg_87">
    <g stroke="null" id="svg_88">
     <path stroke="null" fill="#ffffff" id="svg_89" d="m2015.647571,1850.232487l-128.242,-105.229l-176.408,0c-58.14,0 -105.453,-48.345 -105.453,-107.756l0,-106.739c0,-59.41 47.313,-107.756 105.453,-107.756l279.094,0c58.14,0 105.453,48.346 105.453,107.756l0,106.739c0,49.99 -33.511,92.697 -79.897,104.511l0,108.474zm-304.65,-396.854c-41.257,0 -74.828,34.603 -74.828,77.131l0,106.739c0,42.528 33.571,77.131 74.828,77.131l187.354,0l86.671,71.104l0,-70.043l13.518,-1.6c37.848,-4.456 66.379,-37.384 66.379,-76.592l0,-106.74c0,-42.528 -33.571,-77.131 -74.828,-77.131l-279.094,0l0,0.001z"/>
    </g>
    <g stroke="null" id="svg_90">
     <path stroke="null" fill="#ffffff" id="svg_91" d="m1692.828571,1602.016487c5.458,3.32 16.778,7.223 25.556,7.223c8.972,0 12.681,-3.125 12.681,-8c0,-4.89 -2.931,-7.223 -14.041,-10.931c-19.709,-6.639 -27.32,-17.361 -27.126,-28.681c0,-17.75 15.223,-31.208 38.82,-31.208c11.125,0 21.085,2.527 26.931,5.458l-5.264,20.486c-4.292,-2.348 -12.486,-5.473 -20.681,-5.473c-7.223,0 -11.32,2.931 -11.32,7.806c0,4.486 3.708,6.834 15.417,10.931c18.139,6.236 25.75,15.417 25.945,29.459c0,17.75 -14.042,30.819 -41.362,30.819c-12.486,0 -23.612,-2.722 -30.819,-6.624l5.263,-21.265z"/>
     <path stroke="null" fill="#ffffff" id="svg_92" d="m1777.675571,1562.988487c0,-11.888 -0.389,-22.042 -0.778,-30.431l24.973,0l1.361,12.875l0.583,0c4.097,-6.041 12.486,-15.013 28.875,-15.013c12.292,0 22.042,6.236 26.139,16.18l0.389,0c3.514,-4.875 7.806,-8.778 12.292,-11.499c5.279,-3.125 11.125,-4.68 18.154,-4.68c18.333,0 32.195,12.875 32.195,41.347l0,56.196l-28.875,0l0,-51.891c0,-13.862 -4.501,-21.862 -14.056,-21.862c-6.819,0 -11.709,4.68 -13.653,10.348c-0.778,2.138 -1.166,5.264 -1.166,7.611l0,55.792l-28.875,0l0,-53.459c0,-12.098 -4.292,-20.292 -13.668,-20.292c-7.596,0 -12.098,5.862 -13.847,10.737c-0.972,2.333 -1.166,5.069 -1.166,7.417l0,55.598l-28.875,0l0,-64.974l-0.002,0z"/>
     <path stroke="null" fill="#ffffff" id="svg_93" d="m1945.230571,1602.016487c5.458,3.32 16.778,7.223 25.556,7.223c8.972,0 12.681,-3.125 12.681,-8c0,-4.89 -2.931,-7.223 -14.042,-10.931c-19.709,-6.639 -27.32,-17.361 -27.126,-28.681c0,-17.75 15.223,-31.208 38.82,-31.208c11.125,0 21.07,2.527 26.931,5.458l-5.264,20.486c-4.292,-2.348 -12.486,-5.473 -20.681,-5.473c-7.223,0 -11.32,2.931 -11.32,7.806c0,4.486 3.708,6.834 15.417,10.931c18.139,6.236 25.75,15.417 25.945,29.459c0,17.75 -14.041,30.819 -41.362,30.819c-12.486,0 -23.612,-2.722 -30.819,-6.624l5.264,-21.265z"/>
    </g>
   </g>
   <g stroke="null" transform="matrix(1.0415038316826957,0,0,1.0415038316826957,-1595.349204043671,-1412.4130507611708) " id="svg_94"/>
   <g stroke="null" transform="matrix(1.0415038316826957,0,0,1.0415038316826957,-1595.349204043671,-1412.4130507611708) " id="svg_95"/>
   <g stroke="null" transform="matrix(1.0415038316826957,0,0,1.0415038316826957,-1595.349204043671,-1412.4130507611708) " id="svg_96"/>
   <g stroke="null" transform="matrix(1.0415038316826957,0,0,1.0415038316826957,-1595.349204043671,-1412.4130507611708) " id="svg_97"/>
   <g stroke="null" transform="matrix(1.0415038316826957,0,0,1.0415038316826957,-1595.349204043671,-1412.4130507611708) " id="svg_98"/>
   <g stroke="null" transform="matrix(1.0415038316826957,0,0,1.0415038316826957,-1595.349204043671,-1412.4130507611708) " id="svg_99"/>
   <g stroke="null" transform="matrix(1.0415038316826957,0,0,1.0415038316826957,-1595.349204043671,-1412.4130507611708) " id="svg_100"/>
   <g stroke="null" transform="matrix(1.0415038316826957,0,0,1.0415038316826957,-1595.349204043671,-1412.4130507611708) " id="svg_101"/>
   <g stroke="null" transform="matrix(1.0415038316826957,0,0,1.0415038316826957,-1595.349204043671,-1412.4130507611708) " id="svg_102"/>
   <g stroke="null" transform="matrix(1.0415038316826957,0,0,1.0415038316826957,-1595.349204043671,-1412.4130507611708) " id="svg_103"/>
   <g stroke="null" transform="matrix(1.0415038316826957,0,0,1.0415038316826957,-1595.349204043671,-1412.4130507611708) " id="svg_104"/>
   <g stroke="null" transform="matrix(1.0415038316826957,0,0,1.0415038316826957,-1595.349204043671,-1412.4130507611708) " id="svg_105"/>
   <g stroke="null" transform="matrix(1.0415038316826957,0,0,1.0415038316826957,-1595.349204043671,-1412.4130507611708) " id="svg_106"/>
   <g stroke="null" transform="matrix(1.0415038316826957,0,0,1.0415038316826957,-1595.349204043671,-1412.4130507611708) " id="svg_107"/>
   <g stroke="null" transform="matrix(1.0415038316826957,0,0,1.0415038316826957,-1595.349204043671,-1412.4130507611708) " id="svg_108"/>
  </g>
 </g>
</svg>