<svg width="664" height="584" xmlns="http://www.w3.org/2000/svg" xmlns:xlink="http://www.w3.org/1999/xlink">
 <!-- Generator: Sketch 3.8.3 (29802) - http://www.bohemiancoding.com/sketch -->
 <title>social-icons</title>
 <desc>Created with Sketch.</desc>
 <defs>
  <circle r="22" cy="22" cx="22" id="path-1"/>
  <mask height="44" width="44" y="0" x="0" maskUnits="objectBoundingBox" maskContentUnits="userSpaceOnUse" id="mask-2">
   <use id="svg_1" xlink:href="#path-1"/>
  </mask>
  <circle r="22" cy="22" cx="22" id="path-3"/>
  <mask height="44" width="44" y="0" x="0" maskUnits="objectBoundingBox" maskContentUnits="userSpaceOnUse" id="mask-4">
   <use id="svg_2" xlink:href="#path-3"/>
  </mask>
  <circle r="22" cy="22" cx="22" id="path-5"/>
  <mask height="44" width="44" y="0" x="0" maskUnits="objectBoundingBox" maskContentUnits="userSpaceOnUse" id="mask-6">
   <use id="svg_3" xlink:href="#path-5"/>
  </mask>
  <circle r="22" cy="22" cx="22" id="path-7"/>
  <mask height="44" width="44" y="0" x="0" maskUnits="objectBoundingBox" maskContentUnits="userSpaceOnUse" id="mask-8">
   <use id="svg_4" xlink:href="#path-7"/>
  </mask>
  <circle r="22" cy="22" cx="22" id="path-9"/>
  <mask height="44" width="44" y="0" x="0" maskUnits="objectBoundingBox" maskContentUnits="userSpaceOnUse" id="mask-10">
   <use id="svg_5" xlink:href="#path-9"/>
  </mask>
  <circle r="22" cy="22" cx="22" id="path-11"/>
  <mask height="44" width="44" y="0" x="0" maskUnits="objectBoundingBox" maskContentUnits="userSpaceOnUse" id="mask-12">
   <use id="svg_6" xlink:href="#path-11"/>
  </mask>
  <circle r="22" cy="22" cx="22" id="path-13"/>
  <mask height="44" width="44" y="0" x="0" maskUnits="objectBoundingBox" maskContentUnits="userSpaceOnUse" id="mask-14">
   <use id="svg_7" xlink:href="#path-13"/>
  </mask>
  <circle r="22" cy="22" cx="22" id="path-15"/>
  <mask height="44" width="44" y="0" x="0" maskUnits="objectBoundingBox" maskContentUnits="userSpaceOnUse" id="mask-16">
   <use id="svg_8" xlink:href="#path-15"/>
  </mask>
  <circle r="22" cy="22" cx="22" id="path-17"/>
  <mask height="44" width="44" y="0" x="0" maskUnits="objectBoundingBox" maskContentUnits="userSpaceOnUse" id="mask-18">
   <use id="svg_9" xlink:href="#path-17"/>
  </mask>
  <circle r="22" cy="22" cx="22" id="path-19"/>
  <mask height="44" width="44" y="0" x="0" maskUnits="objectBoundingBox" maskContentUnits="userSpaceOnUse" id="mask-20">
   <use id="svg_10" xlink:href="#path-19"/>
  </mask>
  <circle r="22" cy="22" cx="22" id="path-21"/>
  <mask height="44" width="44" y="0" x="0" maskUnits="objectBoundingBox" maskContentUnits="userSpaceOnUse" id="mask-22">
   <use id="svg_11" xlink:href="#path-21"/>
  </mask>
  <circle r="22" cy="22" cx="22" id="path-23"/>
  <mask height="44" width="44" y="0" x="0" maskUnits="objectBoundingBox" maskContentUnits="userSpaceOnUse" id="mask-24">
   <use id="svg_12" xlink:href="#path-23"/>
  </mask>
  <circle r="22" cy="22" cx="22" id="path-25"/>
  <mask height="44" width="44" y="0" x="0" maskUnits="objectBoundingBox" maskContentUnits="userSpaceOnUse" id="mask-26">
   <use id="svg_13" xlink:href="#path-25"/>
  </mask>
  <circle r="22" cy="22" cx="22" id="path-27"/>
  <mask height="44" width="44" y="0" x="0" maskUnits="objectBoundingBox" maskContentUnits="userSpaceOnUse" id="mask-28">
   <use id="svg_14" xlink:href="#path-27"/>
  </mask>
  <circle r="22" cy="22" cx="22" id="path-29"/>
  <mask height="44" width="44" y="0" x="0" maskUnits="objectBoundingBox" maskContentUnits="userSpaceOnUse" id="mask-30">
   <use id="svg_15" xlink:href="#path-29"/>
  </mask>
  <circle r="22" cy="22" cx="22" id="path-31"/>
  <mask height="44" width="44" y="0" x="0" maskUnits="objectBoundingBox" maskContentUnits="userSpaceOnUse" id="mask-32">
   <use id="svg_16" xlink:href="#path-31"/>
  </mask>
  <circle r="22" cy="22" cx="22" id="path-33"/>
  <mask height="44" width="44" y="0" x="0" maskUnits="objectBoundingBox" maskContentUnits="userSpaceOnUse" id="mask-34">
   <use id="svg_17" xlink:href="#path-33"/>
  </mask>
  <circle r="22" cy="22" cx="22" id="path-35"/>
  <mask height="44" width="44" y="0" x="0" maskUnits="objectBoundingBox" maskContentUnits="userSpaceOnUse" id="mask-36">
   <use id="svg_18" xlink:href="#path-35"/>
  </mask>
  <circle r="22" cy="22" cx="22" id="path-37"/>
  <mask height="44" width="44" y="0" x="0" maskUnits="objectBoundingBox" maskContentUnits="userSpaceOnUse" id="mask-38">
   <use id="svg_19" xlink:href="#path-37"/>
  </mask>
  <circle r="22" cy="22" cx="22" id="path-39"/>
  <mask height="44" width="44" y="0" x="0" maskUnits="objectBoundingBox" maskContentUnits="userSpaceOnUse" id="mask-40">
   <use id="svg_20" xlink:href="#path-39"/>
  </mask>
  <circle r="22" cy="22" cx="22" id="path-41"/>
  <mask height="44" width="44" y="0" x="0" maskUnits="objectBoundingBox" maskContentUnits="userSpaceOnUse" id="mask-42">
   <use id="svg_21" xlink:href="#path-41"/>
  </mask>
  <circle r="22" cy="22" cx="22" id="path-43"/>
  <mask height="44" width="44" y="0" x="0" maskUnits="objectBoundingBox" maskContentUnits="userSpaceOnUse" id="mask-44">
   <use id="svg_22" xlink:href="#path-43"/>
  </mask>
  <circle r="22" cy="22" cx="22" id="path-45"/>
  <mask height="44" width="44" y="0" x="0" maskUnits="objectBoundingBox" maskContentUnits="userSpaceOnUse" id="mask-46">
   <use id="svg_23" xlink:href="#path-45"/>
  </mask>
  <circle r="22" cy="22" cx="22" id="path-47"/>
  <mask height="44" width="44" y="0" x="0" maskUnits="objectBoundingBox" maskContentUnits="userSpaceOnUse" id="mask-48">
   <use id="svg_24" xlink:href="#path-47"/>
  </mask>
  <circle r="22" cy="22" cx="22" id="path-49"/>
  <mask height="44" width="44" y="0" x="0" maskUnits="objectBoundingBox" maskContentUnits="userSpaceOnUse" id="mask-50">
   <use id="svg_25" xlink:href="#path-49"/>
  </mask>
  <circle r="22" cy="22" cx="22" id="path-51"/>
  <mask height="44" width="44" y="0" x="0" maskUnits="objectBoundingBox" maskContentUnits="userSpaceOnUse" id="mask-52">
   <use id="svg_26" xlink:href="#path-51"/>
  </mask>
  <circle r="22" cy="22" cx="22" id="path-53"/>
  <mask height="44" width="44" y="0" x="0" maskUnits="objectBoundingBox" maskContentUnits="userSpaceOnUse" id="mask-54">
   <use id="svg_27" xlink:href="#path-53"/>
  </mask>
  <circle r="22" cy="22" cx="22" id="path-55"/>
  <mask height="44" width="44" y="0" x="0" maskUnits="objectBoundingBox" maskContentUnits="userSpaceOnUse" id="mask-56">
   <use id="svg_28" xlink:href="#path-55"/>
  </mask>
  <circle r="22" cy="22" cx="22" id="path-57"/>
  <mask height="44" width="44" y="0" x="0" maskUnits="objectBoundingBox" maskContentUnits="userSpaceOnUse" id="mask-58">
   <use id="svg_29" xlink:href="#path-57"/>
  </mask>
  <circle r="22" cy="22" cx="22" id="path-59"/>
  <mask height="44" width="44" y="0" x="0" maskUnits="objectBoundingBox" maskContentUnits="userSpaceOnUse" id="mask-60">
   <use id="svg_30" xlink:href="#path-59"/>
  </mask>
  <circle r="22" cy="22" cx="22" id="path-61"/>
  <mask height="44" width="44" y="0" x="0" maskUnits="objectBoundingBox" maskContentUnits="userSpaceOnUse" id="mask-62">
   <use id="svg_31" xlink:href="#path-61"/>
  </mask>
  <circle r="22" cy="22" cx="22" id="path-63"/>
  <mask height="44" width="44" y="0" x="0" maskUnits="objectBoundingBox" maskContentUnits="userSpaceOnUse" id="mask-64">
   <use id="svg_32" xlink:href="#path-63"/>
  </mask>
  <circle r="22" cy="22" cx="22" id="path-65"/>
  <mask height="44" width="44" y="0" x="0" maskUnits="objectBoundingBox" maskContentUnits="userSpaceOnUse" id="mask-66">
   <use id="svg_33" xlink:href="#path-65"/>
  </mask>
  <circle r="22" cy="22" cx="22" id="path-67"/>
  <mask height="44" width="44" y="0" x="0" maskUnits="objectBoundingBox" maskContentUnits="userSpaceOnUse" id="mask-68">
   <use id="svg_34" xlink:href="#path-67"/>
  </mask>
  <circle r="22" cy="22" cx="22" id="path-69"/>
  <mask height="44" width="44" y="0" x="0" maskUnits="objectBoundingBox" maskContentUnits="userSpaceOnUse" id="mask-70">
   <use id="svg_35" xlink:href="#path-69"/>
  </mask>
  <circle r="22" cy="22" cx="22" id="path-71"/>
  <mask height="44" width="44" y="0" x="0" maskUnits="objectBoundingBox" maskContentUnits="userSpaceOnUse" id="mask-72">
   <use id="svg_36" xlink:href="#path-71"/>
  </mask>
  <circle r="22" cy="22" cx="22" id="path-73"/>
  <mask height="44" width="44" y="0" x="0" maskUnits="objectBoundingBox" maskContentUnits="userSpaceOnUse" id="mask-74">
   <use id="svg_37" xlink:href="#path-73"/>
  </mask>
  <circle r="22" cy="22" cx="22" id="path-75"/>
  <mask height="44" width="44" y="0" x="0" maskUnits="objectBoundingBox" maskContentUnits="userSpaceOnUse" id="mask-76">
   <use id="svg_38" xlink:href="#path-75"/>
  </mask>
  <circle r="22" cy="22" cx="22" id="path-77"/>
  <mask height="44" width="44" y="0" x="0" maskUnits="objectBoundingBox" maskContentUnits="userSpaceOnUse" id="mask-78">
   <use id="svg_39" xlink:href="#path-77"/>
  </mask>
  <circle r="22" cy="22" cx="22" id="path-79"/>
  <mask height="44" width="44" y="0" x="0" maskUnits="objectBoundingBox" maskContentUnits="userSpaceOnUse" id="mask-80">
   <use id="svg_40" xlink:href="#path-79"/>
  </mask>
  <circle r="22" cy="22" cx="22" id="path-81"/>
  <mask height="44" width="44" y="0" x="0" maskUnits="objectBoundingBox" maskContentUnits="userSpaceOnUse" id="mask-82">
   <use id="svg_41" xlink:href="#path-81"/>
  </mask>
  <circle r="22" cy="22" cx="22" id="path-83"/>
  <mask height="44" width="44" y="0" x="0" maskUnits="objectBoundingBox" maskContentUnits="userSpaceOnUse" id="mask-84">
   <use id="svg_42" xlink:href="#path-83"/>
  </mask>
  <circle r="22" cy="22" cx="22" id="path-85"/>
  <mask height="44" width="44" y="0" x="0" maskUnits="objectBoundingBox" maskContentUnits="userSpaceOnUse" id="mask-86">
   <use id="svg_43" xlink:href="#path-85"/>
  </mask>
  <circle r="22" cy="22" cx="22" id="path-87"/>
  <mask height="44" width="44" y="0" x="0" maskUnits="objectBoundingBox" maskContentUnits="userSpaceOnUse" id="mask-88">
   <use id="svg_44" xlink:href="#path-87"/>
  </mask>
  <circle r="22" cy="22" cx="22" id="path-89"/>
  <mask height="44" width="44" y="0" x="0" maskUnits="objectBoundingBox" maskContentUnits="userSpaceOnUse" id="mask-90">
   <use id="svg_45" xlink:href="#path-89"/>
  </mask>
  <circle r="22" cy="22" cx="22" id="path-91"/>
  <mask height="44" width="44" y="0" x="0" maskUnits="objectBoundingBox" maskContentUnits="userSpaceOnUse" id="mask-92">
   <use id="svg_46" xlink:href="#path-91"/>
  </mask>
  <circle r="22" cy="22" cx="22" id="path-93"/>
  <mask height="44" width="44" y="0" x="0" maskUnits="objectBoundingBox" maskContentUnits="userSpaceOnUse" id="mask-94">
   <use id="svg_47" xlink:href="#path-93"/>
  </mask>
  <circle r="22" cy="22" cx="22" id="path-95"/>
  <mask height="44" width="44" y="0" x="0" maskUnits="objectBoundingBox" maskContentUnits="userSpaceOnUse" id="mask-96">
   <use id="svg_48" xlink:href="#path-95"/>
  </mask>
  <circle r="22" cy="22" cx="22" id="path-97"/>
  <mask height="44" width="44" y="0" x="0" maskUnits="objectBoundingBox" maskContentUnits="userSpaceOnUse" id="mask-98">
   <use id="svg_49" xlink:href="#path-97"/>
  </mask>
  <circle r="22" cy="22" cx="22" id="path-99"/>
  <mask height="44" width="44" y="0" x="0" maskUnits="objectBoundingBox" maskContentUnits="userSpaceOnUse" id="mask-100">
   <use id="svg_50" xlink:href="#path-99"/>
  </mask>
  <circle r="22" cy="22" cx="22" id="path-101"/>
  <mask height="44" width="44" y="0" x="0" maskUnits="objectBoundingBox" maskContentUnits="userSpaceOnUse" id="mask-102">
   <use id="svg_51" xlink:href="#path-101"/>
  </mask>
  <circle r="22" cy="22" cx="22" id="path-103"/>
  <mask height="44" width="44" y="0" x="0" maskUnits="objectBoundingBox" maskContentUnits="userSpaceOnUse" id="mask-104">
   <use id="svg_52" xlink:href="#path-103"/>
  </mask>
  <circle r="22" cy="22" cx="22" id="path-105"/>
  <mask height="44" width="44" y="0" x="0" maskUnits="objectBoundingBox" maskContentUnits="userSpaceOnUse" id="mask-106">
   <use id="svg_53" xlink:href="#path-105"/>
  </mask>
  <circle r="22" cy="22" cx="22" id="path-107"/>
  <mask height="44" width="44" y="0" x="0" maskUnits="objectBoundingBox" maskContentUnits="userSpaceOnUse" id="mask-108">
   <use id="svg_54" xlink:href="#path-107"/>
  </mask>
  <circle r="22" cy="22" cx="22" id="path-109"/>
  <mask height="44" width="44" y="0" x="0" maskUnits="objectBoundingBox" maskContentUnits="userSpaceOnUse" id="mask-110">
   <use id="svg_55" xlink:href="#path-109"/>
  </mask>
  <circle r="22" cy="22" cx="22" id="path-111"/>
  <mask height="44" width="44" y="0" x="0" maskUnits="objectBoundingBox" maskContentUnits="userSpaceOnUse" id="mask-112">
   <use id="svg_56" xlink:href="#path-111"/>
  </mask>
  <circle r="22" cy="22" cx="22" id="path-113"/>
  <mask height="44" width="44" y="0" x="0" maskUnits="objectBoundingBox" maskContentUnits="userSpaceOnUse" id="mask-114">
   <use id="svg_57" xlink:href="#path-113"/>
  </mask>
  <circle r="22" cy="22" cx="22" id="path-115"/>
  <mask height="44" width="44" y="0" x="0" maskUnits="objectBoundingBox" maskContentUnits="userSpaceOnUse" id="mask-116">
   <use id="svg_58" xlink:href="#path-115"/>
  </mask>
  <circle r="22" cy="22" cx="22" id="path-117"/>
  <mask height="44" width="44" y="0" x="0" maskUnits="objectBoundingBox" maskContentUnits="userSpaceOnUse" id="mask-118">
   <use id="svg_59" xlink:href="#path-117"/>
  </mask>
  <circle r="22" cy="22" cx="22" id="path-119"/>
  <mask height="44" width="44" y="0" x="0" maskUnits="objectBoundingBox" maskContentUnits="userSpaceOnUse" id="mask-120">
   <use id="svg_60" xlink:href="#path-119"/>
  </mask>
  <circle r="22" cy="22" cx="22" id="path-121"/>
  <mask height="44" width="44" y="0" x="0" maskUnits="objectBoundingBox" maskContentUnits="userSpaceOnUse" id="mask-122">
   <use id="svg_61" xlink:href="#path-121"/>
  </mask>
  <circle r="22" cy="22" cx="22" id="path-123"/>
  <mask height="44" width="44" y="0" x="0" maskUnits="objectBoundingBox" maskContentUnits="userSpaceOnUse" id="mask-124">
   <use id="svg_62" xlink:href="#path-123"/>
  </mask>
  <circle r="22" cy="22" cx="22" id="path-125"/>
  <mask height="44" width="44" y="0" x="0" maskUnits="objectBoundingBox" maskContentUnits="userSpaceOnUse" id="mask-126">
   <use id="svg_63" xlink:href="#path-125"/>
  </mask>
  <circle r="22" cy="22" cx="22" id="path-127"/>
  <mask height="44" width="44" y="0" x="0" maskUnits="objectBoundingBox" maskContentUnits="userSpaceOnUse" id="mask-128">
   <use id="svg_64" xlink:href="#path-127"/>
  </mask>
  <circle r="22" cy="22" cx="22" id="path-129"/>
  <mask height="44" width="44" y="0" x="0" maskUnits="objectBoundingBox" maskContentUnits="userSpaceOnUse" id="mask-130">
   <use id="svg_65" xlink:href="#path-129"/>
  </mask>
  <circle r="22" cy="22" cx="22" id="path-131"/>
  <mask height="44" width="44" y="0" x="0" maskUnits="objectBoundingBox" maskContentUnits="userSpaceOnUse" id="mask-132">
   <use id="svg_66" xlink:href="#path-131"/>
  </mask>
  <circle r="22" cy="22" cx="22" id="path-133"/>
  <mask height="44" width="44" y="0" x="0" maskUnits="objectBoundingBox" maskContentUnits="userSpaceOnUse" id="mask-134">
   <use id="svg_67" xlink:href="#path-133"/>
  </mask>
  <circle r="22" cy="22" cx="22" id="path-135"/>
  <mask height="44" width="44" y="0" x="0" maskUnits="objectBoundingBox" maskContentUnits="userSpaceOnUse" id="mask-136">
   <use id="svg_68" xlink:href="#path-135"/>
  </mask>
  <circle r="22" cy="22" cx="22" id="path-137"/>
  <mask height="44" width="44" y="0" x="0" maskUnits="objectBoundingBox" maskContentUnits="userSpaceOnUse" id="mask-138">
   <use id="svg_69" xlink:href="#path-137"/>
  </mask>
  <circle r="22" cy="22" cx="22" id="path-139"/>
  <mask height="44" width="44" y="0" x="0" maskUnits="objectBoundingBox" maskContentUnits="userSpaceOnUse" id="mask-140">
   <use id="svg_70" xlink:href="#path-139"/>
  </mask>
  <circle r="22" cy="22" cx="22" id="path-141"/>
  <mask height="44" width="44" y="0" x="0" maskUnits="objectBoundingBox" maskContentUnits="userSpaceOnUse" id="mask-142">
   <use id="svg_71" xlink:href="#path-141"/>
  </mask>
  <circle r="22" cy="22" cx="22" id="path-143"/>
  <mask height="44" width="44" y="0" x="0" maskUnits="objectBoundingBox" maskContentUnits="userSpaceOnUse" id="mask-144">
   <use id="svg_72" xlink:href="#path-143"/>
  </mask>
  <circle r="22" cy="22" cx="22" id="path-145"/>
  <mask height="44" width="44" y="0" x="0" maskUnits="objectBoundingBox" maskContentUnits="userSpaceOnUse" id="mask-146">
   <use id="svg_73" xlink:href="#path-145"/>
  </mask>
  <circle r="22" cy="22" cx="22" id="path-147"/>
  <mask height="44" width="44" y="0" x="0" maskUnits="objectBoundingBox" maskContentUnits="userSpaceOnUse" id="mask-148">
   <use id="svg_74" xlink:href="#path-147"/>
  </mask>
  <circle r="22" cy="22" cx="22" id="path-149"/>
  <mask height="44" width="44" y="0" x="0" maskUnits="objectBoundingBox" maskContentUnits="userSpaceOnUse" id="mask-150">
   <use id="svg_75" xlink:href="#path-149"/>
  </mask>
  <circle r="22" cy="22" cx="22" id="path-151"/>
  <mask height="44" width="44" y="0" x="0" maskUnits="objectBoundingBox" maskContentUnits="userSpaceOnUse" id="mask-152">
   <use id="svg_76" xlink:href="#path-151"/>
  </mask>
  <circle r="22" cy="22" cx="22" id="path-153"/>
  <mask height="44" width="44" y="0" x="0" maskUnits="objectBoundingBox" maskContentUnits="userSpaceOnUse" id="mask-154">
   <use id="svg_77" xlink:href="#path-153"/>
  </mask>
  <circle r="22" cy="22" cx="22" id="path-155"/>
  <mask height="44" width="44" y="0" x="0" maskUnits="objectBoundingBox" maskContentUnits="userSpaceOnUse" id="mask-156">
   <use id="svg_78" xlink:href="#path-155"/>
  </mask>
  <circle r="22" cy="22" cx="22" id="path-157"/>
  <mask height="44" width="44" y="0" x="0" maskUnits="objectBoundingBox" maskContentUnits="userSpaceOnUse" id="mask-158">
   <use id="svg_79" xlink:href="#path-157"/>
  </mask>
  <circle r="22" cy="22" cx="22" id="path-159"/>
  <mask height="44" width="44" y="0" x="0" maskUnits="objectBoundingBox" maskContentUnits="userSpaceOnUse" id="mask-160">
   <use id="svg_80" xlink:href="#path-159"/>
  </mask>
 </defs>
 <g>
  <title>background</title>
  <rect fill="none" id="canvas_background" height="586" width="666" y="-1" x="-1"/>
 </g>
 <g>
  <title>Layer 1</title>
  <path stroke="null" fill="#ffffff" id="Shape" d="m530.360557,139.901607c21.99423,-13.879543 38.870874,-35.88786 46.791309,-62.105268c-20.593178,12.883804 -43.349104,22.20109 -67.62817,27.245522c-19.374516,-21.847676 -47.065391,-35.470436 -77.711352,-35.470436c-58.793802,0 -106.438001,50.281708 -106.438001,112.290591c0,8.803228 0.883288,17.381804 2.711158,25.57459c-88.464784,-4.690772 -166.907431,-49.349979 -219.456181,-117.334777c-9.169494,16.642847 -14.40917,35.920237 -14.40917,56.482522c0,38.940322 18.795708,73.318387 47.370118,93.495377c-17.455205,-0.578314 -33.874882,-5.687004 -48.253406,-14.040433l0,1.381528c0,54.426541 36.677482,99.824705 85.448901,110.105848c-8.95621,2.634542 -18.338742,3.951814 -28.087044,3.951814c-6.854012,0 -13.556032,-0.6747 -20.014123,-1.991972c13.525634,44.594951 52.853476,77.109559 99.4619,77.97703c-36.464198,30.136846 -82.372219,48.064837 -132.240209,48.064837c-8.590686,0 -17.089928,-0.481928 -25.406285,-1.542172c47.126435,31.83966 103.087238,50.44235 163.221296,50.44235c195.877764,0 302.92522,-171.118745 302.92522,-319.522098c0,-4.88379 -0.061044,-9.735204 -0.274082,-14.522362c20.806216,-15.839632 38.901274,-35.63108 53.127558,-58.153454c-19.100435,8.93199 -39.63257,14.972161 -61.139435,17.670961l0,0.000001z"/>
 </g>
</svg>